<?xml version="1.0" standalone="no"?>
<!DOCTYPE svg PUBLIC "-//W3C//DTD SVG 20010904//EN"
 "http://www.w3.org/TR/2001/REC-SVG-20010904/DTD/svg10.dtd">
<svg version="1.0" xmlns="http://www.w3.org/2000/svg"
 width="526.000000pt" height="526.000000pt" viewBox="0 0 526.000000 526.000000"
 preserveAspectRatio="xMidYMid meet">
<metadata>
Created by potrace 1.14, written by Peter Selinger 2001-2017
</metadata>
<g transform="translate(0.000000,526.000000) scale(0.100000,-0.100000)"
fill="#000000" stroke="none">
<path d="M2180 5110 c14 -4 46 -8 72 -9 26 -1 59 -6 75 -12 15 -6 51 -15 78
-20 28 -4 77 -15 110 -23 33 -8 87 -21 120 -29 90 -21 176 -47 210 -62 17 -7
47 -16 68 -20 20 -4 39 -11 42 -15 3 -5 36 -18 73 -31 37 -12 83 -33 102 -46
19 -12 40 -23 46 -23 20 0 148 -72 194 -109 25 -20 72 -57 104 -81 130 -98
247 -235 323 -379 14 -25 30 -53 36 -61 40 -51 118 -262 136 -366 6 -33 15
-86 21 -119 5 -33 10 -143 9 -245 -1 -176 -5 -213 -43 -385 -1 -5 -7 -20 -14
-31 -6 -12 -16 -43 -22 -70 -22 -97 -107 -228 -237 -363 -35 -35 -63 -67 -64
-70 -2 -22 -333 -250 -363 -251 -5 0 -17 -6 -25 -14 -24 -20 -253 -116 -263
-110 -5 3 -8 15 -7 27 1 12 1 97 1 190 l-2 167 -220 0 -220 0 0 -692 0 -691
198 7 c108 3 242 13 297 21 55 9 116 18 135 20 71 9 236 54 295 80 17 7 65 23
107 36 43 12 85 29 95 38 10 9 36 26 58 37 22 12 67 36 100 54 33 18 71 39 85
46 14 7 35 22 46 32 11 11 32 26 47 33 63 34 397 355 397 383 0 9 3 16 8 16 4
0 29 37 57 83 27 45 58 91 67 101 10 11 18 25 18 31 0 7 9 20 20 30 11 10 20
29 20 42 0 12 3 23 8 23 7 0 22 37 45 113 6 20 15 37 19 37 4 0 8 7 8 15 0 8
4 23 9 33 5 9 14 37 21 62 6 25 15 59 20 75 5 17 12 57 15 90 4 33 11 75 17
92 5 18 11 54 13 80 6 84 7 406 1 458 -22 210 -29 261 -47 345 -11 52 -33 138
-50 191 -16 52 -29 101 -29 107 0 7 -4 12 -10 12 -5 0 -10 8 -10 18 0 10 -7
27 -15 38 -8 10 -15 27 -15 37 0 9 -4 17 -8 17 -4 0 -21 26 -37 58 -16 31 -33
62 -37 67 -4 6 -30 39 -58 75 -108 140 -253 286 -311 314 -10 5 -19 12 -19 16
0 4 -22 21 -50 39 -27 18 -50 37 -50 42 0 5 -6 9 -13 9 -8 0 -21 8 -30 18 -9
10 -37 28 -62 41 -24 12 -47 26 -50 31 -7 12 -65 40 -82 40 -7 0 -13 4 -13 9
0 5 -19 16 -42 26 -24 9 -50 22 -58 29 -8 6 -33 18 -55 25 -22 7 -58 21 -80
31 -22 9 -60 23 -85 30 -25 7 -61 18 -80 25 -39 15 -75 23 -270 62 -131 26
-147 27 -530 29 -222 2 -384 -1 -370 -6z"/>
<path d="M1975 4810 c-102 -19 -203 -43 -232 -56 -18 -8 -50 -21 -70 -29 -21
-9 -49 -23 -63 -31 -14 -8 -65 -35 -115 -60 -49 -26 -94 -52 -98 -60 -4 -8
-15 -14 -23 -14 -9 0 -29 -13 -46 -30 -16 -16 -34 -30 -38 -30 -5 0 -22 -12
-38 -27 -16 -16 -46 -41 -68 -58 -51 -40 -151 -140 -194 -195 -19 -25 -43 -51
-52 -58 -10 -7 -18 -18 -18 -24 0 -6 -11 -21 -25 -34 -14 -13 -25 -27 -25 -33
0 -5 -10 -22 -22 -38 -13 -15 -32 -44 -42 -63 -11 -19 -23 -37 -26 -40 -11 -8
-96 -170 -118 -225 -11 -27 -30 -77 -42 -110 -12 -33 -29 -73 -37 -88 -8 -15
-17 -45 -19 -65 -2 -20 -9 -50 -14 -67 -5 -16 -12 -46 -15 -65 -9 -55 -12 -75
-14 -75 -1 0 -4 -28 -7 -62 -2 -34 -7 -83 -10 -110 -14 -136 -21 -339 -12
-362 5 -14 14 -60 18 -101 21 -180 81 -442 114 -495 7 -11 18 -40 25 -65 7
-25 18 -51 23 -58 6 -7 8 -15 5 -19 -4 -3 2 -18 13 -33 11 -16 20 -31 20 -35
0 -15 72 -152 122 -232 29 -47 83 -125 121 -174 37 -49 67 -92 67 -97 1 -12
206 -232 217 -232 5 0 13 -10 18 -22 6 -13 22 -29 38 -36 15 -7 27 -20 27 -28
0 -7 4 -14 8 -14 7 0 54 -38 114 -93 9 -9 31 -23 47 -32 17 -8 38 -27 47 -40
9 -14 24 -25 34 -25 9 0 22 -11 28 -25 8 -17 20 -25 36 -25 13 0 29 -7 36 -15
7 -9 15 -13 18 -10 3 3 11 -4 19 -15 8 -11 19 -20 25 -20 6 0 25 -11 42 -23
27 -21 69 -44 261 -141 22 -11 42 -24 43 -28 2 -4 8 -8 13 -8 14 0 138 -60
144 -71 4 -5 13 -9 22 -9 8 0 37 -11 65 -25 27 -14 56 -25 64 -25 8 0 14 -4
14 -10 0 -5 7 -10 16 -10 9 0 28 -7 42 -14 15 -8 45 -22 67 -31 22 -10 81 -37
130 -60 50 -24 102 -47 117 -50 15 -4 32 -13 39 -21 6 -7 26 -16 45 -20 19 -3
34 -9 34 -13 0 -7 89 -51 103 -51 4 0 39 -15 79 -34 100 -46 226 -61 158 -18
-11 7 -20 21 -20 32 0 11 -9 25 -20 32 -11 7 -20 17 -20 22 0 5 -15 25 -32 45
-18 21 -71 90 -118 154 -46 64 -87 117 -91 117 -4 0 -16 18 -28 41 -12 22 -26
46 -31 52 -5 7 -26 32 -46 57 -19 25 -51 63 -71 85 -19 22 -79 99 -133 170
-54 72 -110 141 -125 155 -15 14 -38 42 -51 62 -13 21 -35 40 -49 44 -14 3
-30 15 -36 25 -5 11 -15 19 -20 19 -6 0 -39 21 -73 46 -33 25 -74 55 -90 67
-17 12 -37 29 -46 37 -8 8 -31 26 -50 39 -19 14 -48 40 -63 58 -16 18 -35 33
-42 33 -8 0 -19 9 -25 20 -6 11 -14 18 -19 16 -4 -3 -15 4 -24 15 -9 10 -23
19 -31 19 -8 0 -16 6 -18 14 -3 14 -128 126 -140 126 -4 0 -17 18 -29 40 -13
22 -28 40 -34 40 -12 0 -105 95 -105 108 0 4 -15 23 -33 42 -70 73 -204 306
-227 395 -5 17 -17 64 -28 105 -36 130 -44 226 -31 352 6 62 14 120 19 128 4
8 11 42 15 74 4 32 18 86 32 120 46 112 77 181 89 196 7 8 16 27 19 43 4 15
11 27 16 27 5 0 19 20 31 44 26 50 90 128 166 203 28 28 52 56 52 62 0 6 6 11
13 11 6 0 27 14 46 31 19 16 52 39 72 51 21 12 36 25 33 30 -3 5 -2 8 3 7 9
-2 31 6 89 32 48 22 61 23 114 7 25 -8 43 -21 46 -33 4 -11 12 -23 18 -27 8
-6 8 -10 0 -15 -6 -5 -13 -16 -17 -26 -4 -10 -26 -26 -49 -36 -68 -30 -108
-81 -125 -159 -16 -74 -10 -155 13 -200 7 -15 14 -33 14 -39 0 -7 3 -13 8 -13
4 0 13 -14 21 -31 16 -36 176 -200 211 -215 14 -6 43 -19 65 -29 85 -37 303
-61 330 -36 6 4 50 16 99 25 88 17 264 92 296 126 3 3 28 22 55 42 58 42 127
113 118 122 -4 3 0 6 8 6 8 0 23 15 35 33 66 102 80 131 109 217 24 72 30 341
9 410 -7 25 -25 86 -39 135 -15 50 -33 100 -41 112 -7 12 -30 51 -50 88 -19
37 -55 94 -79 126 -54 74 -197 197 -270 233 -30 14 -55 31 -55 36 0 6 -6 10
-12 10 -7 0 -26 7 -43 16 -32 17 -133 50 -200 64 -22 5 -60 13 -85 19 -51 11
-394 12 -455 1z"/>
</g>
</svg>
